<svg width="68" height="126" viewBox="0 0 68 126" fill="none" xmlns="http://www.w3.org/2000/svg">
<path d="M33.7625 -3.05176e-05C29.8717 0.10347 26.4708 2.71264 25.3601 6.44262C24.3738 9.75521 25.3961 13.3024 27.8827 15.6008L14.9012 32.722C12.4686 35.9294 11.9382 40.2258 13.5388 43.9195L17.318 52.6209C17.3644 52.7379 17.4201 52.8504 17.485 52.9539L9.57481 103.509H2.50834C2.42902 103.505 2.34999 103.505 2.27124 103.509C1.11529 103.626 0.239474 104.605 0.249599 105.768V123.777C0.263099 125.013 1.27279 126.005 2.50834 126H65.4912C66.727 126 67.7353 125.013 67.7499 123.777V105.768C67.7544 104.519 66.7405 103.504 65.4912 103.509H58.4247L50.5145 52.9539H50.5235C50.582 52.8507 50.6321 52.7424 50.6728 52.6299L54.461 43.9285C55.7295 41.0012 55.5183 37.6043 54.2239 34.7614L46.7004 49.0436L39.4756 45.1677L47.9852 26.4661L40.1082 15.5923C42.6988 13.1741 43.6891 9.41041 42.4988 6.02132C41.209 2.34873 37.6534 -0.0846819 33.7622 0.00925645L33.7625 -3.05176e-05Z" fill="#15375C"/>
<path d="M33.8906 4.51403C35.8495 4.46453 37.6009 5.65394 38.25 7.50261C38.7976 9.06216 38.3963 10.7342 37.3359 11.9411L35.7891 9.89326C35.3286 9.28407 34.5906 8.94992 33.829 9.00618C33.1847 9.05455 32.5926 9.37801 32.2031 9.89326L30.6388 11.9588C29.6313 10.8177 29.221 9.25453 29.6718 7.73999C30.2309 5.86207 31.932 4.56241 33.8906 4.51403Z" fill="#F7B500"/>
<path d="M33.9963 14.9823L43.8666 27.9989L38.7776 37.1396C38.1732 38.2317 38.5683 39.607 39.6607 40.212C40.7528 40.8161 42.1284 40.4207 42.7328 39.3286L46.8462 31.9277L49.5093 35.4434C50.9642 37.3621 51.2666 39.9134 50.3092 42.1226L47.1187 49.4967H20.8567L17.6488 42.1226C16.6911 39.9134 17.0283 37.3621 18.4838 35.4434L33.9963 14.9823Z" fill="white"/>
<path d="M21.8673 54.0145H46.1166L53.851 103.506H14.1328L21.8673 54.0145Z" fill="#0366D0"/>
<path d="M4.72852 107.998H63.2642V121.515H4.72852V107.998Z" fill="#F7B500"/>
<path d="M33.9196 5.56021C35.3278 5.51521 36.5867 6.38007 37.0536 7.70871C37.4474 8.82978 37.1591 10.0324 36.3966 10.8998L35.2845 9.42716C34.9535 8.98868 34.4231 8.74877 33.8755 8.78871C33.4122 8.82386 32.9864 9.05618 32.7066 9.42716L31.5821 10.9119C30.8576 10.0923 30.5628 8.96786 30.8871 7.87913C31.2888 6.52828 32.5114 5.59424 33.9196 5.56021Z" fill="#BF8C00"/>
<path d="M33.9948 16.9954L42.7136 28.4939L38.2184 36.5678C37.6845 37.5325 38.0336 38.7475 38.9986 39.2813C39.9635 39.8151 41.1783 39.4658 41.7124 38.5014L45.3459 31.964L47.6983 35.0698C48.9836 36.7655 49.2505 39.0183 48.4048 40.9702L45.5866 47.4841H22.3883L19.5544 40.9702C18.7084 39.0186 19.0066 36.7652 20.2919 35.0698L33.9948 16.9954Z" fill="#EBFEFF"/>
<path d="M22.9835 56.2998L20.8213 70.1694L24.5566 67.7962L26.956 71.5844L19.8982 76.0845L19.1335 80.9541L24.5563 77.5L26.9557 81.2882L18.2104 86.8606L15.9691 101.222H52.0133L44.9994 56.3003H22.9827L22.9835 56.2998Z" fill="#52A5FF"/>
<path d="M34.0172 9.00845C33.9497 9.00845 33.8822 9.01126 33.8153 9.00845C33.1847 9.05795 32.6039 9.37322 32.2155 9.87019L14.8746 32.722C12.4421 35.9288 11.9465 40.1906 13.5474 43.8838L17.3004 52.6206C18.496 55.392 22.6527 53.5985 21.4576 50.827L17.6694 42.0905C16.7118 39.8813 17.0141 37.3652 18.4693 35.4459L34.0085 14.9502L46.6913 31.7024L47.7862 26.1159L35.775 9.87019C35.3529 9.32625 34.7054 9.00563 34.0172 9V9.00845ZM54.1971 34.7518L49.8993 43.0664L46.533 50.8355C45.3379 53.6069 49.4945 55.3999 50.6901 52.629L54.4432 43.8922C55.7043 40.9824 55.4779 37.5657 54.1971 34.7515V34.7518Z" fill="#15375C"/>
<path d="M46.1372 25.8571C45.3992 25.9459 44.7529 26.3937 44.4097 27.0529L38.7956 37.1181C38.1218 38.1624 38.4219 39.5549 39.4659 40.2291C40.5099 40.9032 41.9029 40.6031 42.5768 39.5588C42.6283 39.4792 42.6744 39.3968 42.7155 39.311L48.3295 29.2124C48.9469 28.1335 48.5728 26.759 47.4942 26.1417C47.0833 25.9057 46.6083 25.8064 46.1372 25.8571Z" fill="#15375C"/>
<path d="M33.9962 109.694H60.9965V119.819H33.9962V109.694Z" fill="#BF8C00"/>
</svg>
