<?xml version="1.0" standalone="no"?>
<!DOCTYPE svg PUBLIC "-//W3C//DTD SVG 20010904//EN"
 "http://www.w3.org/TR/2001/REC-SVG-20010904/DTD/svg10.dtd">
<svg version="1.0" xmlns="http://www.w3.org/2000/svg"
 width="144.000000pt" height="144.000000pt" viewBox="0 0 144.000000 144.000000"
 preserveAspectRatio="xMidYMid meet">
<metadata>
Created by potrace 1.16, written by Peter Selinger 2001-2019
</metadata>
<g transform="translate(0.000000,144.000000) scale(0.100000,-0.100000)"
fill="#000000" stroke="none">
<path d="M975 1314 c-33 -8 -78 -23 -100 -33 -29 -14 -71 -21 -150 -25 -270
-13 -455 -116 -549 -307 -63 -128 -79 -251 -50 -382 50 -224 231 -392 476
-441 130 -27 237 -15 351 37 52 24 167 119 167 138 0 5 -29 -14 -64 -40 -79
-60 -156 -90 -262 -104 -204 -26 -420 74 -532 245 -137 210 -112 459 62 632
112 112 214 149 391 144 87 -2 116 0 135 13 29 18 86 44 118 54 27 8 28 -5 7
-65 -18 -50 -34 -14 152 -325 128 -212 144 -244 139 -274 -7 -46 -31 -79 -73
-99 l-35 -17 -31 40 c-56 72 -124 132 -229 203 -174 117 -242 188 -259 272
l-7 35 -1 -44 c-2 -91 64 -176 254 -326 55 -44 109 -89 120 -100 35 -36 90
-99 106 -123 l16 -22 47 20 c66 28 114 67 137 111 33 66 41 47 -166 419 -129
232 -117 203 -101 267 28 115 28 113 9 112 -10 0 -45 -7 -78 -15z"/>
</g>
</svg>
